{
  "accessors": [
    {
      "bufferView": 2,
      "componentType": 5126,
      "count": 24,
      "max": [
        0.5,
        0.5,
        0.5
      ],
      "min": [
        -0.5,
        -0.5,
        -0.5
      ],
      "type": "VEC3"
    },
    {
      "bufferView": 2,
      "byteOffset": 288,
      "componentType": 5126,
      "count": 24,
      "max": [
        1.0,
        1.0,
        1.0
      ],
      "min": [
        -1.0,
        -1.0,
        -1.0
      ],
      "type": "VEC3"
    },
    {
      "bufferView": 1,
      "componentType": 5126,
      "count": 24,
      "max": [
        1.0,
        1.0
      ],
      "min": [
        0.0,
        0.0
      ],
      "type": "VEC2"
    },
    {
      "bufferView": 0,
      "componentType": 5125,
      "count": 36,
      "type": "SCALAR"
    },
    {
      "bufferView": 2,
      "byteOffset": 576,
      "componentType": 5126,
      "count": 24,
      "max": [
        0.5,
        0.5,
        0.5
      ],
      "min": [
        -0.5,
        -0.5,
        -0.5
      ],
      "type": "VEC3"
    },
    {
      "bufferView": 2,
      "byteOffset": 864,
      "componentType": 5126,
      "count": 24,
      "max": [
        1.0,
        1.0,
        1.0
      ],
      "min": [
        -1.0,
        -1.0,
        -1.0
      ],
      "type": "VEC3"
    },
    {
      "bufferView": 1,
      "byteOffset": 192,
      "componentType": 5126,
      "count": 24,
      "max": [
        1.0,
        1.0
      ],
      "min": [
        0.0,
        0.0
      ],
      "type": "VEC2"
    },
    {
      "bufferView": 0,
      "byteOffset": 144,
      "componentType": 5125,
      "count": 36,
      "type": "SCALAR"
    },
    {
      "bufferView": 2,
      "byteOffset": 1152,
      "componentType": 5126,
      "count": 2917,
      "max": [
        1920.0,
        192.0,
        3776.0
      ],
      "min": [
        -2560.0,
        -416.0,
        -1536.0
      ],
      "type": "VEC3"
    },
    {
      "bufferView": 2,
      "byteOffset": 36156,
      "componentType": 5126,
      "count": 2917,
      "max": [
        1.0,
        1.0,
        1.0
      ],
      "min": [
        -1.0,
        -1.0,
        -1.0
      ],
      "type": "VEC3"
    },
    {
      "bufferView": 1,
      "byteOffset": 384,
      "componentType": 5126,
      "count": 2917,
      "max": [
        39.333335876464844,
        99.16656494140625
      ],
      "min": [
        -35.5910530090332,
        -56.0
      ],
      "type": "VEC2"
    },
    {
      "bufferView": 0,
      "byteOffset": 288,
      "componentType": 5125,
      "count": 5913,
      "type": "SCALAR"
    },
    {
      "bufferView": 2,
      "byteOffset": 71160,
      "componentType": 5126,
      "count": 790,
      "max": [
        1808.0,
        112.0,
        3776.0
      ],
      "min": [
        -2560.0,
        -352.0,
        -1152.0
      ],
      "type": "VEC3"
    },
    {
      "bufferView": 2,
      "byteOffset": 80640,
      "componentType": 5126,
      "count": 790,
      "max": [
        1.0,
        1.0,
        1.0
      ],
      "min": [
        0.0,
        -1.0,
        0.0
      ],
      "type": "VEC3"
    },
    {
      "bufferView": 1,
      "byteOffset": 23720,
      "componentType": 5126,
      "count": 790,
      "max": [
        12.34375,
        19.166667938232422
      ],
      "min": [
        -10.0,
        -11.333333969116211
      ],
      "type": "VEC2"
    },
    {
      "bufferView": 0,
      "byteOffset": 23940,
      "componentType": 5125,
      "count": 2163,
      "type": "SCALAR"
    },
    {
      "bufferView": 2,
      "byteOffset": 90120,
      "componentType": 5126,
      "count": 361,
      "max": [
        256.0,
        104.0,
        3584.0
      ],
      "min": [
        -2496.0,
        -384.0,
        1536.0
      ],
      "type": "VEC3"
    },
    {
      "bufferView": 2,
      "byteOffset": 94452,
      "componentType": 5126,
      "count": 361,
      "max": [
        1.0,
        0.009854582138359547,
        1.0
      ],
      "min": [
        -1.0,
        -1.0,
        -1.0
      ],
      "type": "VEC3"
    },
    {
      "bufferView": 1,
      "byteOffset": 30040,
      "componentType": 5126,
      "count": 361,
      "max": [
        28.0,
        9.333333969116211
      ],
      "min": [
        -13.0,
        -0.27083298563957214
      ],
      "type": "VEC2"
    },
    {
      "bufferView": 0,
      "byteOffset": 32592,
      "componentType": 5125,
      "count": 825,
      "type": "SCALAR"
    },
    {
      "bufferView": 2,
      "byteOffset": 98784,
      "componentType": 5126,
      "count": 373,
      "max": [
        1792.0,
        128.0,
        3264.0
      ],
      "min": [
        -2176.0,
        -256.0,
        -640.0
      ],
      "type": "VEC3"
    },
    {
      "bufferView": 2,
      "byteOffset": 103260,
      "componentType": 5126,
      "count": 373,
      "max": [
        1.0,
        0.32250380516052246,
        1.0
      ],
      "min": [
        -1.0,
        -0.32246214151382446,
        -1.0
      ],
      "type": "VEC3"
    },
    {
      "bufferView": 1,
      "byteOffset": 32928,
      "componentType": 5126,
      "count": 373,
      "max": [
        33.000003814697266,
        3.0
      ],
      "min": [
        -21.000001907348633,
        -3.0023419857025146
      ],
      "type": "VEC2"
    },
    {
      "bufferView": 0,
      "byteOffset": 35892,
      "componentType": 5125,
      "count": 693,
      "type": "SCALAR"
    },
    {
      "bufferView": 2,
      "byteOffset": 107736,
      "componentType": 5126,
      "count": 11,
      "max": [
        1792.0,
        -144.0,
        2304.0
      ],
      "min": [
        -1840.0,
        -304.0,
        704.0
      ],
      "type": "VEC3"
    },
    {
      "bufferView": 2,
      "byteOffset": 107868,
      "componentType": 5126,
      "count": 11,
      "max": [
        0.0,
        0.0,
        0.0
      ],
      "min": [
        -1.0,
        0.0,
        -1.0
      ],
      "type": "VEC3"
    },
    {
      "bufferView": 1,
      "byteOffset": 35912,
      "componentType": 5126,
      "count": 11,
      "max": [
        -6.0,
        3.0
      ],
      "min": [
        -8.0,
        1.0
      ],
      "type": "VEC2"
    },
    {
      "bufferView": 0,
      "byteOffset": 38664,
      "componentType": 5125,
      "count": 21,
      "type": "SCALAR"
    },
    {
      "bufferView": 2,
      "byteOffset": 108000,
      "componentType": 5126,
      "count": 12,
      "max": [
        1792.0,
        -144.0,
        2048.0
      ],
      "min": [
        -1632.0,
        -304.0,
        704.0
      ],
      "type": "VEC3"
    },
    {
      "bufferView": 2,
      "byteOffset": 108144,
      "componentType": 5126,
      "count": 12,
      "max": [
        0.0,
        0.0,
        0.0
      ],
      "min": [
        -1.0,
        0.0,
        -1.0
      ],
      "type": "VEC3"
    },
    {
      "bufferView": 1,
      "byteOffset": 36000,
      "componentType": 5126,
      "count": 12,
      "max": [
        -5.125,
        3.0
      ],
      "min": [
        -7.0,
        1.0
      ],
      "type": "VEC2"
    },
    {
      "bufferView": 0,
      "byteOffset": 38748,
      "componentType": 5125,
      "count": 24,
      "type": "SCALAR"
    },
    {
      "bufferView": 2,
      "byteOffset": 108288,
      "componentType": 5126,
      "count": 5,
      "max": [
        1248.0,
        -96.0,
        2496.0
      ],
      "min": [
        1056.0,
        -96.0,
        2336.0
      ],
      "type": "VEC3"
    },
    {
      "bufferView": 2,
      "byteOffset": 108348,
      "componentType": 5126,
      "count": 5,
      "max": [
        0.0,
        -1.0,
        0.0
      ],
      "min": [
        0.0,
        -1.0,
        0.0
      ],
      "type": "VEC3"
    },
    {
      "bufferView": 1,
      "byteOffset": 36096,
      "componentType": 5126,
      "count": 5,
      "max": [
        4.875,
        13.0
      ],
      "min": [
        4.125,
        12.166666984558105
      ],
      "type": "VEC2"
    },
    {
      "bufferView": 0,
      "byteOffset": 38844,
      "componentType": 5125,
      "count": 9,
      "type": "SCALAR"
    },
    {
      "bufferView": 2,
      "byteOffset": 108408,
      "componentType": 5126,
      "count": 15,
      "max": [
        1600.0,
        -0.0,
        1536.0
      ],
      "min": [
        512.0,
        -320.0,
        1408.0
      ],
      "type": "VEC3"
    },
    {
      "bufferView": 2,
      "byteOffset": 108588,
      "componentType": 5126,
      "count": 15,
      "max": [
        -1.0,
        0.0,
        0.0
      ],
      "min": [
        -1.0,
        0.0,
        0.0
      ],
      "type": "VEC3"
    },
    {
      "bufferView": 1,
      "byteOffset": 36136,
      "componentType": 5126,
      "count": 15,
      "max": [
        -11.0,
        1.0666669607162476
      ],
      "min": [
        -12.0,
        -0.0
      ],
      "type": "VEC2"
    },
    {
      "bufferView": 0,
      "byteOffset": 38880,
      "componentType": 5125,
      "count": 33,
      "type": "SCALAR"
    },
    {
      "bufferView": 2,
      "byteOffset": 108768,
      "componentType": 5126,
      "count": 143,
      "max": [
        1792.0,
        32.0,
        3264.0
      ],
      "min": [
        -2176.0,
        -256.0,
        -640.0
      ],
      "type": "VEC3"
    },
    {
      "bufferView": 2,
      "byteOffset": 110484,
      "componentType": 5126,
      "count": 143,
      "max": [
        0.32246214151382446,
        -0.9465824365615845,
        0.0
      ],
      "min": [
        0.0,
        -1.0,
        0.0
      ],
      "type": "VEC3"
    },
    {
      "bufferView": 1,
      "byteOffset": 36256,
      "componentType": 5126,
      "count": 143,
      "max": [
        19.0,
        33.000003814697266
      ],
      "min": [
        -21.000001907348633,
        -4.0
      ],
      "type": "VEC2"
    },
    {
      "bufferView": 0,
      "byteOffset": 39012,
      "componentType": 5125,
      "count": 246,
      "type": "SCALAR"
    },
    {
      "bufferView": 2,
      "byteOffset": 112200,
      "componentType": 5126,
      "count": 22,
      "max": [
        448.0,
        96.0,
        2016.0
      ],
      "min": [
        320.0,
        -32.0,
        2012.0
      ],
      "type": "VEC3"
    },
    {
      "bufferView": 2,
      "byteOffset": 112464,
      "componentType": 5126,
      "count": 22,
      "max": [
        1.0,
        1.0,
        1.0
      ],
      "min": [
        -1.0,
        -1.0,
        0.0
      ],
      "type": "VEC3"
    },
    {
      "bufferView": 1,
      "byteOffset": 37400,
      "componentType": 5126,
      "count": 22,
      "max": [
        63.0,
        63.0
      ],
      "min": [
        10.0,
        -3.0
      ],
      "type": "VEC2"
    },
    {
      "bufferView": 0,
      "byteOffset": 39996,
      "componentType": 5125,
      "count": 36,
      "type": "SCALAR"
    },
    {
      "bufferView": 2,
      "byteOffset": 112728,
      "componentType": 5126,
      "count": 9,
      "max": [
        448.0,
        96.0,
        2016.0
      ],
      "min": [
        320.0,
        -32.0,
        2016.0
      ],
      "type": "VEC3"
    },
    {
      "bufferView": 2,
      "byteOffset": 112836,
      "componentType": 5126,
      "count": 9,
      "max": [
        0.0,
        0.0,
        -1.0
      ],
      "min": [
        0.0,
        0.0,
        -1.0
      ],
      "type": "VEC3"
    },
    {
      "bufferView": 1,
      "byteOffset": 37576,
      "componentType": 5126,
      "count": 9,
      "max": [
        3.0,
        -0.0
      ],
      "min": [
        2.0,
        -1.0
      ],
      "type": "VEC2"
    },
    {
      "bufferView": 0,
      "byteOffset": 40140,
      "componentType": 5125,
      "count": 24,
      "type": "SCALAR"
    },
    {
      "bufferView": 2,
      "byteOffset": 112944,
      "componentType": 5126,
      "count": 88,
      "max": [
        -80.0,
        128.0,
        2560.0
      ],
      "min": [
        -960.0,
        -128.0,
        256.0
      ],
      "type": "VEC3"
    },
    {
      "bufferView": 2,
      "byteOffset": 114000,
      "componentType": 5126,
      "count": 88,
      "max": [
        1.0,
        0.0,
        1.0
      ],
      "min": [
        -1.0,
        0.0,
        -1.0
      ],
      "type": "VEC3"
    },
    {
      "bufferView": 1,
      "byteOffset": 37648,
      "componentType": 5126,
      "count": 88,
      "max": [
        40.0,
        1.0
      ],
      "min": [
        -40.0,
        -1.0
      ],
      "type": "VEC2"
    },
    {
      "bufferView": 0,
      "byteOffset": 40236,
      "componentType": 5125,
      "count": 144,
      "type": "SCALAR"
    },
    {
      "bufferView": 2,
      "byteOffset": 115056,
      "componentType": 5126,
      "count": 335,
      "max": [
        512.0,
        -0.0,
        1792.0
      ],
      "min": [
        -2240.0,
        -160.0,
        -1024.0
      ],
      "type": "VEC3"
    },
    {
      "bufferView": 2,
      "byteOffset": 119076,
      "componentType": 5126,
      "count": 335,
      "max": [
        0.2357022762298584,
        -0.9428090453147888,
        0.24253565073013306
      ],
      "min": [
        -0.12237256020307541,
        -1.0,
        -0.12378298491239548
      ],
      "type": "VEC3"
    },
    {
      "bufferView": 1,
      "byteOffset": 38352,
      "componentType": 5126,
      "count": 335,
      "max": [
        4.0,
        14.0
      ],
      "min": [
        -17.5,
        -8.0
      ],
      "type": "VEC2"
    },
    {
      "bufferView": 0,
      "byteOffset": 40812,
      "componentType": 5125,
      "count": 1044,
      "type": "SCALAR"
    },
    {
      "bufferView": 2,
      "byteOffset": 123096,
      "componentType": 5126,
      "count": 40,
      "max": [
        304.0,
        128.0,
        1637.0
      ],
      "min": [
        -1408.0,
        -160.0,
        288.0
      ],
      "type": "VEC3"
    },
    {
      "bufferView": 2,
      "byteOffset": 123576,
      "componentType": 5126,
      "count": 40,
      "max": [
        0.4223511219024658,
        1.1567582077987026e-05,
        0.9065132737159729
      ],
      "min": [
        -1.0,
        -3.6439912946661934e-05,
        -1.0
      ],
      "type": "VEC3"
    },
    {
      "bufferView": 1,
      "byteOffset": 41032,
      "componentType": 5126,
      "count": 40,
      "max": [
        2.5,
        0.9905629754066467
      ],
      "min": [
        -3.0,
        -1.0
      ],
      "type": "VEC2"
    },
    {
      "bufferView": 0,
      "byteOffset": 44988,
      "componentType": 5125,
      "count": 96,
      "type": "SCALAR"
    },
    {
      "bufferView": 2,
      "byteOffset": 124056,
      "componentType": 5126,
      "count": 7,
      "max": [
        -512.0,
        -0.0,
        3584.0
      ],
      "min": [
        -512.0,
        -128.0,
        3328.0
      ],
      "type": "VEC3"
    },
    {
      "bufferView": 2,
      "byteOffset": 124140,
      "componentType": 5126,
      "count": 7,
      "max": [
        1.0,
        0.0,
        0.0
      ],
      "min": [
        1.0,
        0.0,
        0.0
      ],
      "type": "VEC3"
    },
    {
      "bufferView": 1,
      "byteOffset": 41352,
      "componentType": 5126,
      "count": 7,
      "max": [
        14.0,
        1.0
      ],
      "min": [
        13.0,
        -0.0
      ],
      "type": "VEC2"
    },
    {
      "bufferView": 0,
      "byteOffset": 45372,
      "componentType": 5125,
      "count": 15,
      "type": "SCALAR"
    },
    {
      "bufferView": 2,
      "byteOffset": 124224,
      "componentType": 5126,
      "count": 12,
      "max": [
        -1472.0,
        -0.0,
        2816.0
      ],
      "min": [
        -1728.0,
        -0.0,
        2560.0
      ],
      "type": "VEC3"
    },
    {
      "bufferView": 2,
      "byteOffset": 124368,
      "componentType": 5126,
      "count": 12,
      "max": [
        0.0,
        -1.0,
        0.0
      ],
      "min": [
        0.0,
        -1.0,
        0.0
      ],
      "type": "VEC3"
    },
    {
      "bufferView": 1,
      "byteOffset": 41408,
      "componentType": 5126,
      "count": 12,
      "max": [
        -5.0,
        11.0
      ],
      "min": [
        -6.0,
        10.0
      ],
      "type": "VEC2"
    },
    {
      "bufferView": 0,
      "byteOffset": 45432,
      "componentType": 5125,
      "count": 33,
      "type": "SCALAR"
    },
    {
      "bufferView": 2,
      "byteOffset": 124512,
      "componentType": 5126,
      "count": 7,
      "max": [
        -1308.0,
        -0.0,
        2272.0
      ],
      "min": [
        -1349.0,
        -158.49000549316406,
        2184.0
      ],
      "type": "VEC3"
    },
    {
      "bufferView": 2,
      "byteOffset": 124596,
      "componentType": 5126,
      "count": 7,
      "max": [
        0.906471848487854,
        1.1567582077987026e-05,
        -0.4222661554813385
      ],
      "min": [
        0.906423032283783,
        -3.6439912946661934e-05,
        -0.4223712086677551
      ],
      "type": "VEC3"
    },
    {
      "bufferView": 1,
      "byteOffset": 41504,
      "componentType": 5126,
      "count": 7,
      "max": [
        12.98669147491455,
        0.9905629754066467
      ],
      "min": [
        12.477431297302246,
        -0.0
      ],
      "type": "VEC2"
    },
    {
      "bufferView": 0,
      "byteOffset": 45564,
      "componentType": 5125,
      "count": 15,
      "type": "SCALAR"
    },
    {
      "bufferView": 2,
      "byteOffset": 124680,
      "componentType": 5126,
      "count": 5,
      "max": [
        -2048.0,
        -32.0,
        1600.0
      ],
      "min": [
        -2048.0,
        -192.0,
        1472.0
      ],
      "type": "VEC3"
    },
    {
      "bufferView": 2,
      "byteOffset": 124740,
      "componentType": 5126,
      "count": 5,
      "max": [
        1.0,
        0.0,
        0.0
      ],
      "min": [
        1.0,
        0.0,
        0.0
      ],
      "type": "VEC3"
    },
    {
      "bufferView": 1,
      "byteOffset": 41560,
      "componentType": 5126,
      "count": 5,
      "max": [
        13.0,
        0.800000011920929
      ],
      "min": [
        12.0,
        0.1333329975605011
      ],
      "type": "VEC2"
    },
    {
      "bufferView": 0,
      "byteOffset": 45624,
      "componentType": 5125,
      "count": 9,
      "type": "SCALAR"
    },
    {
      "bufferView": 2,
      "byteOffset": 124800,
      "componentType": 5126,
      "count": 22,
      "max": [
        1808.0,
        -16.0,
        608.0
      ],
      "min": [
        144.0,
        -192.0,
        -176.0
      ],
      "type": "VEC3"
    },
    {
      "bufferView": 2,
      "byteOffset": 125064,
      "componentType": 5126,
      "count": 22,
      "max": [
        1.0,
        0.0,
        0.0
      ],
      "min": [
        -1.0,
        0.0,
        0.0
      ],
      "type": "VEC3"
    },
    {
      "bufferView": 1,
      "byteOffset": 41600,
      "componentType": 5126,
      "count": 22,
      "max": [
        0.5,
        0.875
      ],
      "min": [
        -2.5,
        -0.0
      ],
      "type": "VEC2"
    },
    {
      "bufferView": 0,
      "byteOffset": 45660,
      "componentType": 5125,
      "count": 54,
      "type": "SCALAR"
    },
    {
      "bufferView": 2,
      "byteOffset": 125328,
      "componentType": 5126,
      "count": 7,
      "max": [
        632.0,
        -0.0,
        325.0
      ],
      "min": [
        544.0,
        -158.49000549316406,
        284.0
      ],
      "type": "VEC3"
    },
    {
      "bufferView": 2,
      "byteOffset": 125412,
      "componentType": 5126,
      "count": 7,
      "max": [
        0.4223706126213074,
        1.1567582077987026e-05,
        -0.9064232110977173
      ],
      "min": [
        0.4222668409347534,
        -3.615176319726743e-05,
        -0.9064715504646301
      ],
      "type": "VEC3"
    },
    {
      "bufferView": 1,
      "byteOffset": 41776,
      "componentType": 5126,
      "count": 7,
      "max": [
        -3.0,
        0.9905629754066467
      ],
      "min": [
        -3.509258985519409,
        -0.0
      ],
      "type": "VEC2"
    },
    {
      "bufferView": 0,
      "byteOffset": 45876,
      "componentType": 5125,
      "count": 15,
      "type": "SCALAR"
    },
    {
      "bufferView": 2,
      "byteOffset": 125496,
      "componentType": 5126,
      "count": 31,
      "max": [
        -384.0,
        -0.0,
        3584.0
      ],
      "min": [
        -512.0,
        -128.0,
        3328.0
      ],
      "type": "VEC3"
    },
    {
      "bufferView": 2,
      "byteOffset": 125868,
      "componentType": 5126,
      "count": 31,
      "max": [
        0.0,
        1.0,
        1.0
      ],
      "min": [
        -1.0,
        -1.0,
        -1.0
      ],
      "type": "VEC3"
    },
    {
      "bufferView": 1,
      "byteOffset": 41832,
      "componentType": 5126,
      "count": 31,
      "max": [
        112.0,
        112.0
      ],
      "min": [
        -16.0,
        -0.0
      ],
      "type": "VEC2"
    },
    {
      "bufferView": 0,
      "byteOffset": 45936,
      "componentType": 5125,
      "count": 63,
      "type": "SCALAR"
    },
    {
      "bufferView": 2,
      "byteOffset": 126240,
      "componentType": 5126,
      "count": 13,
      "max": [
        -2256.0,
        -128.0,
        -672.0
      ],
      "min": [
        -2256.0,
        -288.0,
        -864.0
      ],
      "type": "VEC3"
    },
    {
      "bufferView": 2,
      "byteOffset": 126396,
      "componentType": 5126,
      "count": 13,
      "max": [
        1.0,
        0.0,
        0.0
      ],
      "min": [
        1.0,
        0.0,
        0.0
      ],
      "type": "VEC3"
    },
    {
      "bufferView": 1,
      "byteOffset": 42080,
      "componentType": 5126,
      "count": 13,
      "max": [
        -3.0,
        1.0
      ],
      "min": [
        -4.0,
        -0.0
      ],
      "type": "VEC2"
    },
    {
      "bufferView": 0,
      "byteOffset": 46188,
      "componentType": 5125,
      "count": 33,
      "type": "SCALAR"
    },
    {
      "bufferView": 2,
      "byteOffset": 126552,
      "componentType": 5126,
      "count": 238,
      "max": [
        1792.0,
        128.0,
        3648.0
      ],
      "min": [
        -2240.0,
        -384.0,
        -992.0
      ],
      "type": "VEC3"
    },
    {
      "bufferView": 2,
      "byteOffset": 129408,
      "componentType": 5126,
      "count": 238,
      "max": [
        1.0,
        0.0,
        1.0
      ],
      "min": [
        -1.0,
        0.0,
        -1.0
      ],
      "type": "VEC3"
    },
    {
      "bufferView": 1,
      "byteOffset": 42184,
      "componentType": 5126,
      "count": 238,
      "max": [
        23.0,
        1.2000000476837158
      ],
      "min": [
        -17.0,
        -1.0666669607162476
      ],
      "type": "VEC2"
    },
    {
      "bufferView": 0,
      "byteOffset": 46320,
      "componentType": 5125,
      "count": 492,
      "type": "SCALAR"
    },
    {
      "bufferView": 2,
      "byteOffset": 132264,
      "componentType": 5126,
      "count": 563,
      "max": [
        1536.0,
        192.0,
        3146.669921875
      ],
      "min": [
        -2256.0,
        -128.0,
        -896.0
      ],
      "type": "VEC3"
    },
    {
      "bufferView": 2,
      "byteOffset": 139020,
      "componentType": 5126,
      "count": 563,
      "max": [
        0.3162277936935425,
        -0.936329185962677,
        0.24253565073013306
      ],
      "min": [
        -0.24253565073013306,
        -1.0,
        -0.3511234521865845
      ],
      "type": "VEC3"
    },
    {
      "bufferView": 1,
      "byteOffset": 44088,
      "componentType": 5126,
      "count": 563,
      "max": [
        6.0,
        12.291679382324219
      ],
      "min": [
        -8.0,
        -8.8125
      ],
      "type": "VEC2"
    },
    {
      "bufferView": 0,
      "byteOffset": 48288,
      "componentType": 5125,
      "count": 1830,
      "type": "SCALAR"
    },
    {
      "bufferView": 2,
      "byteOffset": 145776,
      "componentType": 5126,
      "count": 349,
      "max": [
        1792.0,
        192.0,
        3160.0
      ],
      "min": [
        -2128.1201171875,
        -144.0,
        32.0
      ],
      "type": "VEC3"
    },
    {
      "bufferView": 2,
      "byteOffset": 149964,
      "componentType": 5126,
      "count": 349,
      "max": [
        0.39662232995033264,
        0.0,
        1.0
      ],
      "min": [
        -0.24253565073013306,
        -1.0,
        -0.3418847918510437
      ],
      "type": "VEC3"
    },
    {
      "bufferView": 1,
      "byteOffset": 48592,
      "componentType": 5126,
      "count": 349,
      "max": [
        14.0,
        24.6875
      ],
      "min": [
        -16.625938415527344,
        0.25
      ],
      "type": "VEC2"
    },
    {
      "bufferView": 0,
      "byteOffset": 55608,
      "componentType": 5125,
      "count": 900,
      "type": "SCALAR"
    },
    {
      "bufferView": 2,
      "byteOffset": 154152,
      "componentType": 5126,
      "count": 181,
      "max": [
        1536.0,
        192.0,
        3088.0
      ],
      "min": [
        -2128.0,
        -288.0,
        -864.0
      ],
      "type": "VEC3"
    },
    {
      "bufferView": 2,
      "byteOffset": 156324,
      "componentType": 5126,
      "count": 181,
      "max": [
        1.0,
        3.406742325751111e-05,
        1.0
      ],
      "min": [
        -1.0,
        -5.3576517530018464e-05,
        -1.0
      ],
      "type": "VEC3"
    },
    {
      "bufferView": 1,
      "byteOffset": 51384,
      "componentType": 5126,
      "count": 181,
      "max": [
        12.988426208496094,
        1.0
      ],
      "min": [
        -9.0,
        -1.0
      ],
      "type": "VEC2"
    },
    {
      "bufferView": 0,
      "byteOffset": 59208,
      "componentType": 5125,
      "count": 405,
      "type": "SCALAR"
    },
    {
      "bufferView": 2,
      "byteOffset": 158496,
      "componentType": 5126,
      "count": 6,
      "max": [
        1024.0,
        -128.0,
        3072.0
      ],
      "min": [
        1024.0,
        -320.0,
        2816.0
      ],
      "type": "VEC3"
    },
    {
      "bufferView": 2,
      "byteOffset": 158568,
      "componentType": 5126,
      "count": 6,
      "max": [
        1.0,
        0.0,
        0.0
      ],
      "min": [
        1.0,
        0.0,
        0.0
      ],
      "type": "VEC3"
    },
    {
      "bufferView": 1,
      "byteOffset": 52832,
      "componentType": 5126,
      "count": 6,
      "max": [
        12.0,
        1.0
      ],
      "min": [
        11.0,
        0.20000000298023224
      ],
      "type": "VEC2"
    },
    {
      "bufferView": 0,
      "byteOffset": 60828,
      "componentType": 5125,
      "count": 12,
      "type": "SCALAR"
    },
    {
      "bufferView": 2,
      "byteOffset": 158640,
      "componentType": 5126,
      "count": 4267,
      "max": [
        1920.0,
        192.0,
        3696.0
      ],
      "min": [
        -2560.0,
        -384.0,
        -1536.0
      ],
      "type": "VEC3"
    },
    {
      "bufferView": 2,
      "byteOffset": 209844,
      "componentType": 5126,
      "count": 4267,
      "max": [
        1.0,
        1.0,
        1.0
      ],
      "min": [
        -1.0,
        -1.0,
        -1.0
      ],
      "type": "VEC3"
    },
    {
      "bufferView": 1,
      "byteOffset": 52880,
      "componentType": 5126,
      "count": 4267,
      "max": [
        28.875,
        12.866667747497559
      ],
      "min": [
        -21.75,
        -3.4833340644836426
      ],
      "type": "VEC2"
    },
    {
      "bufferView": 0,
      "byteOffset": 60876,
      "componentType": 5125,
      "count": 10563,
      "type": "SCALAR"
    },
    {
      "bufferView": 2,
      "byteOffset": 261048,
      "componentType": 5126,
      "count": 418,
      "max": [
        1792.0,
        192.0,
        3264.0
      ],
      "min": [
        -2112.0,
        -256.0,
        -512.0
      ],
      "type": "VEC3"
    },
    {
      "bufferView": 2,
      "byteOffset": 266064,
      "componentType": 5126,
      "count": 418,
      "max": [
        1.0,
        0.2524512708187103,
        1.0
      ],
      "min": [
        -1.0,
        -0.25232553482055664,
        -1.0
      ],
      "type": "VEC3"
    },
    {
      "bufferView": 1,
      "byteOffset": 87016,
      "componentType": 5126,
      "count": 418,
      "max": [
        53.99848175048828,
        4.0
      ],
      "min": [
        -67.00000762939453,
        -11.99770736694336
      ],
      "type": "VEC2"
    },
    {
      "bufferView": 0,
      "byteOffset": 103128,
      "componentType": 5125,
      "count": 681,
      "type": "SCALAR"
    },
    {
      "bufferView": 2,
      "byteOffset": 271080,
      "componentType": 5126,
      "count": 103,
      "max": [
        1344.0,
        64.0,
        2887.0
      ],
      "min": [
        -1728.0,
        -224.0,
        256.0
      ],
      "type": "VEC3"
    },
    {
      "bufferView": 2,
      "byteOffset": 272316,
      "componentType": 5126,
      "count": 103,
      "max": [
        0.0,
        1.0,
        0.24987801909446716
      ],
      "min": [
        0.0,
        -1.0,
        -0.24987801909446716
      ],
      "type": "VEC3"
    },
    {
      "bufferView": 1,
      "byteOffset": 90360,
      "componentType": 5126,
      "count": 103,
      "max": [
        20.0,
        42.0
      ],
      "min": [
        -45.00614547729492,
        5.0
      ],
      "type": "VEC2"
    },
    {
      "bufferView": 0,
      "byteOffset": 105852,
      "componentType": 5125,
      "count": 162,
      "type": "SCALAR"
    },
    {
      "bufferView": 2,
      "byteOffset": 273552,
      "componentType": 5126,
      "count": 143,
      "max": [
        1344.0,
        -0.0,
        2887.0
      ],
      "min": [
        -1728.0,
        -224.0,
        2320.0
      ],
      "type": "VEC3"
    },
    {
      "bufferView": 2,
      "byteOffset": 275268,
      "componentType": 5126,
      "count": 143,
      "max": [
        1.0,
        0.24987801909446716,
        1.0
      ],
      "min": [
        -1.0,
        -0.24987801909446716,
        -1.0
      ],
      "type": "VEC3"
    },
    {
      "bufferView": 1,
      "byteOffset": 91184,
      "componentType": 5126,
      "count": 143,
      "max": [
        42.0,
        3.0
      ],
      "min": [
        -45.00614547729492,
        -9.00051498413086
      ],
      "type": "VEC2"
    },
    {
      "bufferView": 0,
      "byteOffset": 106500,
      "componentType": 5125,
      "count": 216,
      "type": "SCALAR"
    },
    {
      "bufferView": 2,
      "byteOffset": 276984,
      "componentType": 5126,
      "count": 432,
      "max": [
        1288.0,
        100.0,
        2528.0
      ],
      "min": [
        -1988.0,
        -192.0,
        140.0
      ],
      "type": "VEC3"
    },
    {
      "bufferView": 2,
      "byteOffset": 282168,
      "componentType": 5126,
      "count": 432,
      "max": [
        1.0,
        1.0,
        1.0
      ],
      "min": [
        -1.0,
        -1.0,
        -1.0
      ],
      "type": "VEC3"
    },
    {
      "bufferView": 1,
      "byteOffset": 92328,
      "componentType": 5126,
      "count": 432,
      "max": [
        30.4375,
        30.8125
      ],
      "min": [
        -39.5,
        -14.3125
      ],
      "type": "VEC2"
    },
    {
      "bufferView": 0,
      "byteOffset": 107364,
      "componentType": 5125,
      "count": 648,
      "type": "SCALAR"
    },
    {
      "bufferView": 2,
      "byteOffset": 287352,
      "componentType": 5126,
      "count": 144,
      "max": [
        1286.0,
        98.0,
        2526.0
      ],
      "min": [
        -1986.0,
        -166.0,
        142.0
      ],
      "type": "VEC3"
    },
    {
      "bufferView": 2,
      "byteOffset": 289080,
      "componentType": 5126,
      "count": 144,
      "max": [
        1.0,
        1.0,
        1.0
      ],
      "min": [
        -1.0,
        -1.0,
        -1.0
      ],
      "type": "VEC3"
    },
    {
      "bufferView": 1,
      "byteOffset": 95784,
      "componentType": 5126,
      "count": 144,
      "max": [
        123.875,
        30.78125
      ],
      "min": [
        -157.625,
        -14.28125
      ],
      "type": "VEC2"
    },
    {
      "bufferView": 0,
      "byteOffset": 109956,
      "componentType": 5125,
      "count": 216,
      "type": "SCALAR"
    },
    {
      "bufferView": 2,
      "byteOffset": 290808,
      "componentType": 5126,
      "count": 154,
      "max": [
        1792.0,
        128.0,
        3264.0
      ],
      "min": [
        -2112.0,
        -256.0,
        -512.0
      ],
      "type": "VEC3"
    },
    {
      "bufferView": 2,
      "byteOffset": 292656,
      "componentType": 5126,
      "count": 154,
      "max": [
        5.296550443745218e-05,
        1.0,
        0.25250762701034546
      ],
      "min": [
        0.0,
        -1.0,
        -0.25242191553115845
      ],
      "type": "VEC3"
    },
    {
      "bufferView": 1,
      "byteOffset": 96936,
      "componentType": 5126,
      "count": 154,
      "max": [
        51.00483703613281,
        53.99848175048828
      ],
      "min": [
        -67.00000762939453,
        -43.000003814697266
      ],
      "type": "VEC2"
    },
    {
      "bufferView": 0,
      "byteOffset": 110820,
      "componentType": 5125,
      "count": 249,
      "type": "SCALAR"
    }
  ],
  "asset": {
    "extras": {
      "author": "crikozo (https://sketchfab.com/guzmano)",
      "license": "CC-BY-4.0 (http://creativecommons.org/licenses/by/4.0/)",
      "source": "https://sketchfab.com/3d-models/de-dust-2-original-y-en-honor-a-justin-dejong-9f3283580ebf45ef892e026134cbe201",
      "title": "de dust 2 original ( y en honor a justin dejong"
    },
    "generator": "Sketchfab-16.74.0",
    "version": "2.0"
  },
  "bufferViews": [
    {
      "buffer": 0,
      "byteLength": 111816,
      "name": "floatBufferViews",
      "target": 34963
    },
    {
      "buffer": 0,
      "byteLength": 98168,
      "byteOffset": 111816,
      "byteStride": 8,
      "name": "floatBufferViews",
      "target": 34962
    },
    {
      "buffer": 0,
      "byteLength": 294504,
      "byteOffset": 209984,
      "byteStride": 12,
      "name": "floatBufferViews",
      "target": 34962
    }
  ],
  "buffers": [
    {
      "byteLength": 504488,
      "uri": "scene.bin"
    }
  ],
  "images": [
    {
      "uri": "textures/material_2_baseColor.png"
    },
    {
      "uri": "textures/material_3_baseColor.png"
    },
    {
      "uri": "textures/material_4_baseColor.png"
    },
    {
      "uri": "textures/material_5_baseColor.png"
    },
    {
      "uri": "textures/material_6_baseColor.png"
    },
    {
      "uri": "textures/material_7_baseColor.png"
    },
    {
      "uri": "textures/material_8_baseColor.png"
    },
    {
      "uri": "textures/material_9_baseColor.png"
    },
    {
      "uri": "textures/material_10_baseColor.png"
    },
    {
      "uri": "textures/material_18_baseColor.png"
    },
    {
      "uri": "textures/material_19_baseColor.png"
    },
    {
      "uri": "textures/material_20_baseColor.png"
    },
    {
      "uri": "textures/material_11_baseColor.png"
    },
    {
      "uri": "textures/material_23_baseColor.png"
    },
    {
      "uri": "textures/material_24_baseColor.png"
    },
    {
      "uri": "textures/material_25_baseColor.png"
    },
    {
      "uri": "textures/material_26_baseColor.png"
    },
    {
      "uri": "textures/material_27_baseColor.png"
    },
    {
      "uri": "textures/material_28_baseColor.png"
    },
    {
      "uri": "textures/material_29_baseColor.png"
    },
    {
      "uri": "textures/material_3_22_baseColor.png"
    },
    {
      "uri": "textures/material_30_baseColor.png"
    },
    {
      "uri": "textures/material_12_baseColor.png"
    },
    {
      "uri": "textures/material_13_baseColor.png"
    },
    {
      "uri": "textures/material_14_baseColor.png"
    },
    {
      "uri": "textures/material_15_baseColor.png"
    },
    {
      "uri": "textures/material_16_baseColor.png"
    },
    {
      "uri": "textures/material_17_baseColor.png"
    },
    {
      "uri": "textures/material_18_30_baseColor.png"
    },
    {
      "uri": "textures/material_19_31_baseColor.png"
    },
    {
      "uri": "textures/material_20_32_baseColor.png"
    },
    {
      "uri": "textures/material_32_baseColor.png"
    },
    {
      "uri": "textures/material_33_baseColor.png"
    },
    {
      "uri": "textures/material_21_baseColor.png"
    }
  ],
  "materials": [
    {
      "name": "material_0",
      "pbrMetallicRoughness": {
        "metallicFactor": 0.0
      }
    },
    {
      "name": "material_1",
      "pbrMetallicRoughness": {
        "metallicFactor": 0.0
      }
    },
    {
      "doubleSided": true,
      "name": "material_2",
      "pbrMetallicRoughness": {
        "baseColorTexture": {
          "index": 0
        },
        "metallicFactor": 0.0,
        "roughnessFactor": 0.9
      }
    },
    {
      "doubleSided": true,
      "name": "material_3",
      "pbrMetallicRoughness": {
        "baseColorTexture": {
          "index": 1
        },
        "metallicFactor": 0.0,
        "roughnessFactor": 0.9
      }
    },
    {
      "name": "material_4",
      "pbrMetallicRoughness": {
        "baseColorTexture": {
          "index": 2
        },
        "metallicFactor": 0.0,
        "roughnessFactor": 0.9
      }
    },
    {
      "name": "material_5",
      "pbrMetallicRoughness": {
        "baseColorTexture": {
          "index": 3
        },
        "metallicFactor": 0.0,
        "roughnessFactor": 0.9
      }
    },
    {
      "name": "material_6",
      "pbrMetallicRoughness": {
        "baseColorTexture": {
          "index": 4
        },
        "metallicFactor": 0.0,
        "roughnessFactor": 0.9
      }
    },
    {
      "name": "material_7",
      "pbrMetallicRoughness": {
        "baseColorTexture": {
          "index": 5
        },
        "metallicFactor": 0.0,
        "roughnessFactor": 0.9
      }
    },
    {
      "name": "material_8",
      "pbrMetallicRoughness": {
        "baseColorTexture": {
          "index": 6
        },
        "metallicFactor": 0.0,
        "roughnessFactor": 0.9
      }
    },
    {
      "name": "material_9",
      "pbrMetallicRoughness": {
        "baseColorTexture": {
          "index": 7
        },
        "metallicFactor": 0.0,
        "roughnessFactor": 0.9
      }
    },
    {
      "name": "material_10",
      "pbrMetallicRoughness": {
        "baseColorTexture": {
          "index": 8
        },
        "metallicFactor": 0.0,
        "roughnessFactor": 0.9
      }
    },
    {
      "doubleSided": true,
      "name": "material_18",
      "pbrMetallicRoughness": {
        "baseColorTexture": {
          "index": 9
        },
        "metallicFactor": 0.0
      }
    },
    {
      "doubleSided": true,
      "name": "material_19",
      "pbrMetallicRoughness": {
        "baseColorTexture": {
          "index": 10
        },
        "metallicFactor": 0.0
      }
    },
    {
      "doubleSided": true,
      "name": "material_20",
      "pbrMetallicRoughness": {
        "baseColorTexture": {
          "index": 11
        },
        "metallicFactor": 0.0
      }
    },
    {
      "name": "material_11",
      "pbrMetallicRoughness": {
        "baseColorTexture": {
          "index": 12
        },
        "metallicFactor": 0.0,
        "roughnessFactor": 0.9
      }
    },
    {
      "doubleSided": true,
      "name": "material_23",
      "pbrMetallicRoughness": {
        "baseColorTexture": {
          "index": 13
        },
        "metallicFactor": 0.0
      }
    },
    {
      "doubleSided": true,
      "name": "material_24",
      "pbrMetallicRoughness": {
        "baseColorTexture": {
          "index": 14
        },
        "metallicFactor": 0.0
      }
    },
    {
      "doubleSided": true,
      "name": "material_25",
      "pbrMetallicRoughness": {
        "baseColorTexture": {
          "index": 15
        },
        "metallicFactor": 0.0
      }
    },
    {
      "doubleSided": true,
      "name": "material_26",
      "pbrMetallicRoughness": {
        "baseColorTexture": {
          "index": 16
        },
        "metallicFactor": 0.0
      }
    },
    {
      "doubleSided": true,
      "name": "material_27",
      "pbrMetallicRoughness": {
        "baseColorTexture": {
          "index": 17
        },
        "metallicFactor": 0.0
      }
    },
    {
      "doubleSided": true,
      "name": "material_28",
      "pbrMetallicRoughness": {
        "baseColorTexture": {
          "index": 18
        },
        "metallicFactor": 0.0
      }
    },
    {
      "doubleSided": true,
      "name": "material_29",
      "pbrMetallicRoughness": {
        "baseColorTexture": {
          "index": 19
        },
        "metallicFactor": 0.0
      }
    },
    {
      "doubleSided": true,
      "name": "material_3_22",
      "pbrMetallicRoughness": {
        "baseColorTexture": {
          "index": 20
        },
        "metallicFactor": 0.0
      }
    },
    {
      "doubleSided": true,
      "name": "material_30",
      "pbrMetallicRoughness": {
        "baseColorTexture": {
          "index": 21
        },
        "metallicFactor": 0.0
      }
    },
    {
      "doubleSided": true,
      "name": "material_12",
      "pbrMetallicRoughness": {
        "baseColorTexture": {
          "index": 22
        },
        "metallicFactor": 0.0,
        "roughnessFactor": 0.9
      }
    },
    {
      "name": "material_13",
      "pbrMetallicRoughness": {
        "baseColorTexture": {
          "index": 23
        },
        "metallicFactor": 0.0,
        "roughnessFactor": 0.9
      }
    },
    {
      "name": "material_14",
      "pbrMetallicRoughness": {
        "baseColorTexture": {
          "index": 24
        },
        "metallicFactor": 0.0,
        "roughnessFactor": 0.9
      }
    },
    {
      "name": "material_15",
      "pbrMetallicRoughness": {
        "baseColorTexture": {
          "index": 25
        },
        "metallicFactor": 0.0,
        "roughnessFactor": 0.9
      }
    },
    {
      "name": "material_16",
      "pbrMetallicRoughness": {
        "baseColorTexture": {
          "index": 26
        },
        "metallicFactor": 0.0,
        "roughnessFactor": 0.9
      }
    },
    {
      "doubleSided": true,
      "name": "material_17",
      "pbrMetallicRoughness": {
        "baseColorTexture": {
          "index": 27
        },
        "metallicFactor": 0.0,
        "roughnessFactor": 0.9
      }
    },
    {
      "name": "material_18_30",
      "pbrMetallicRoughness": {
        "baseColorTexture": {
          "index": 28
        },
        "metallicFactor": 0.0,
        "roughnessFactor": 0.9
      }
    },
    {
      "name": "material_19_31",
      "pbrMetallicRoughness": {
        "baseColorTexture": {
          "index": 29
        },
        "metallicFactor": 0.0,
        "roughnessFactor": 0.9
      }
    },
    {
      "name": "material_20_32",
      "pbrMetallicRoughness": {
        "baseColorTexture": {
          "index": 30
        },
        "metallicFactor": 0.0,
        "roughnessFactor": 0.9
      }
    },
    {
      "doubleSided": true,
      "name": "material_32",
      "pbrMetallicRoughness": {
        "baseColorTexture": {
          "index": 31
        },
        "metallicFactor": 0.0
      }
    },
    {
      "doubleSided": true,
      "name": "material_33",
      "pbrMetallicRoughness": {
        "baseColorTexture": {
          "index": 32
        },
        "metallicFactor": 0.0
      }
    },
    {
      "name": "material_21",
      "pbrMetallicRoughness": {
        "baseColorTexture": {
          "index": 33
        },
        "metallicFactor": 0.0,
        "roughnessFactor": 0.9
      }
    }
  ],
  "meshes": [
    {
      "name": "Object_0",
      "primitives": [
        {
          "attributes": {
            "NORMAL": 1,
            "POSITION": 0,
            "TEXCOORD_0": 2
          },
          "indices": 3,
          "material": 0,
          "mode": 4
        }
      ]
    },
    {
      "name": "Object_1",
      "primitives": [
        {
          "attributes": {
            "NORMAL": 5,
            "POSITION": 4,
            "TEXCOORD_0": 6
          },
          "indices": 7,
          "material": 1,
          "mode": 4
        }
      ]
    },
    {
      "name": "Object_2",
      "primitives": [
        {
          "attributes": {
            "NORMAL": 9,
            "POSITION": 8,
            "TEXCOORD_0": 10
          },
          "indices": 11,
          "material": 2,
          "mode": 4
        }
      ]
    },
    {
      "name": "Object_3",
      "primitives": [
        {
          "attributes": {
            "NORMAL": 13,
            "POSITION": 12,
            "TEXCOORD_0": 14
          },
          "indices": 15,
          "material": 3,
          "mode": 4
        }
      ]
    },
    {
      "name": "Object_4",
      "primitives": [
        {
          "attributes": {
            "NORMAL": 17,
            "POSITION": 16,
            "TEXCOORD_0": 18
          },
          "indices": 19,
          "material": 4,
          "mode": 4
        }
      ]
    },
    {
      "name": "Object_5",
      "primitives": [
        {
          "attributes": {
            "NORMAL": 21,
            "POSITION": 20,
            "TEXCOORD_0": 22
          },
          "indices": 23,
          "material": 5,
          "mode": 4
        }
      ]
    },
    {
      "name": "Object_6",
      "primitives": [
        {
          "attributes": {
            "NORMAL": 25,
            "POSITION": 24,
            "TEXCOORD_0": 26
          },
          "indices": 27,
          "material": 6,
          "mode": 4
        }
      ]
    },
    {
      "name": "Object_7",
      "primitives": [
        {
          "attributes": {
            "NORMAL": 29,
            "POSITION": 28,
            "TEXCOORD_0": 30
          },
          "indices": 31,
          "material": 7,
          "mode": 4
        }
      ]
    },
    {
      "name": "Object_8",
      "primitives": [
        {
          "attributes": {
            "NORMAL": 33,
            "POSITION": 32,
            "TEXCOORD_0": 34
          },
          "indices": 35,
          "material": 8,
          "mode": 4
        }
      ]
    },
    {
      "name": "Object_9",
      "primitives": [
        {
          "attributes": {
            "NORMAL": 37,
            "POSITION": 36,
            "TEXCOORD_0": 38
          },
          "indices": 39,
          "material": 9,
          "mode": 4
        }
      ]
    },
    {
      "name": "Object_10",
      "primitives": [
        {
          "attributes": {
            "NORMAL": 41,
            "POSITION": 40,
            "TEXCOORD_0": 42
          },
          "indices": 43,
          "material": 10,
          "mode": 4
        }
      ]
    },
    {
      "name": "Object_11",
      "primitives": [
        {
          "attributes": {
            "NORMAL": 45,
            "POSITION": 44,
            "TEXCOORD_0": 46
          },
          "indices": 47,
          "material": 11,
          "mode": 4
        }
      ]
    },
    {
      "name": "Object_12",
      "primitives": [
        {
          "attributes": {
            "NORMAL": 49,
            "POSITION": 48,
            "TEXCOORD_0": 50
          },
          "indices": 51,
          "material": 12,
          "mode": 4
        }
      ]
    },
    {
      "name": "Object_13",
      "primitives": [
        {
          "attributes": {
            "NORMAL": 53,
            "POSITION": 52,
            "TEXCOORD_0": 54
          },
          "indices": 55,
          "material": 13,
          "mode": 4
        }
      ]
    },
    {
      "name": "Object_14",
      "primitives": [
        {
          "attributes": {
            "NORMAL": 57,
            "POSITION": 56,
            "TEXCOORD_0": 58
          },
          "indices": 59,
          "material": 14,
          "mode": 4
        }
      ]
    },
    {
      "name": "Object_15",
      "primitives": [
        {
          "attributes": {
            "NORMAL": 61,
            "POSITION": 60,
            "TEXCOORD_0": 62
          },
          "indices": 63,
          "material": 15,
          "mode": 4
        }
      ]
    },
    {
      "name": "Object_16",
      "primitives": [
        {
          "attributes": {
            "NORMAL": 65,
            "POSITION": 64,
            "TEXCOORD_0": 66
          },
          "indices": 67,
          "material": 16,
          "mode": 4
        }
      ]
    },
    {
      "name": "Object_17",
      "primitives": [
        {
          "attributes": {
            "NORMAL": 69,
            "POSITION": 68,
            "TEXCOORD_0": 70
          },
          "indices": 71,
          "material": 17,
          "mode": 4
        }
      ]
    },
    {
      "name": "Object_18",
      "primitives": [
        {
          "attributes": {
            "NORMAL": 73,
            "POSITION": 72,
            "TEXCOORD_0": 74
          },
          "indices": 75,
          "material": 18,
          "mode": 4
        }
      ]
    },
    {
      "name": "Object_19",
      "primitives": [
        {
          "attributes": {
            "NORMAL": 77,
            "POSITION": 76,
            "TEXCOORD_0": 78
          },
          "indices": 79,
          "material": 19,
          "mode": 4
        }
      ]
    },
    {
      "name": "Object_20",
      "primitives": [
        {
          "attributes": {
            "NORMAL": 81,
            "POSITION": 80,
            "TEXCOORD_0": 82
          },
          "indices": 83,
          "material": 20,
          "mode": 4
        }
      ]
    },
    {
      "name": "Object_21",
      "primitives": [
        {
          "attributes": {
            "NORMAL": 85,
            "POSITION": 84,
            "TEXCOORD_0": 86
          },
          "indices": 87,
          "material": 21,
          "mode": 4
        }
      ]
    },
    {
      "name": "Object_22",
      "primitives": [
        {
          "attributes": {
            "NORMAL": 89,
            "POSITION": 88,
            "TEXCOORD_0": 90
          },
          "indices": 91,
          "material": 22,
          "mode": 4
        }
      ]
    },
    {
      "name": "Object_23",
      "primitives": [
        {
          "attributes": {
            "NORMAL": 93,
            "POSITION": 92,
            "TEXCOORD_0": 94
          },
          "indices": 95,
          "material": 23,
          "mode": 4
        }
      ]
    },
    {
      "name": "Object_24",
      "primitives": [
        {
          "attributes": {
            "NORMAL": 97,
            "POSITION": 96,
            "TEXCOORD_0": 98
          },
          "indices": 99,
          "material": 24,
          "mode": 4
        }
      ]
    },
    {
      "name": "Object_25",
      "primitives": [
        {
          "attributes": {
            "NORMAL": 101,
            "POSITION": 100,
            "TEXCOORD_0": 102
          },
          "indices": 103,
          "material": 25,
          "mode": 4
        }
      ]
    },
    {
      "name": "Object_26",
      "primitives": [
        {
          "attributes": {
            "NORMAL": 105,
            "POSITION": 104,
            "TEXCOORD_0": 106
          },
          "indices": 107,
          "material": 26,
          "mode": 4
        }
      ]
    },
    {
      "name": "Object_27",
      "primitives": [
        {
          "attributes": {
            "NORMAL": 109,
            "POSITION": 108,
            "TEXCOORD_0": 110
          },
          "indices": 111,
          "material": 27,
          "mode": 4
        }
      ]
    },
    {
      "name": "Object_28",
      "primitives": [
        {
          "attributes": {
            "NORMAL": 113,
            "POSITION": 112,
            "TEXCOORD_0": 114
          },
          "indices": 115,
          "material": 28,
          "mode": 4
        }
      ]
    },
    {
      "name": "Object_29",
      "primitives": [
        {
          "attributes": {
            "NORMAL": 117,
            "POSITION": 116,
            "TEXCOORD_0": 118
          },
          "indices": 119,
          "material": 29,
          "mode": 4
        }
      ]
    },
    {
      "name": "Object_30",
      "primitives": [
        {
          "attributes": {
            "NORMAL": 121,
            "POSITION": 120,
            "TEXCOORD_0": 122
          },
          "indices": 123,
          "material": 30,
          "mode": 4
        }
      ]
    },
    {
      "name": "Object_31",
      "primitives": [
        {
          "attributes": {
            "NORMAL": 125,
            "POSITION": 124,
            "TEXCOORD_0": 126
          },
          "indices": 127,
          "material": 31,
          "mode": 4
        }
      ]
    },
    {
      "name": "Object_32",
      "primitives": [
        {
          "attributes": {
            "NORMAL": 129,
            "POSITION": 128,
            "TEXCOORD_0": 130
          },
          "indices": 131,
          "material": 32,
          "mode": 4
        }
      ]
    },
    {
      "name": "Object_33",
      "primitives": [
        {
          "attributes": {
            "NORMAL": 133,
            "POSITION": 132,
            "TEXCOORD_0": 134
          },
          "indices": 135,
          "material": 33,
          "mode": 4
        }
      ]
    },
    {
      "name": "Object_34",
      "primitives": [
        {
          "attributes": {
            "NORMAL": 137,
            "POSITION": 136,
            "TEXCOORD_0": 138
          },
          "indices": 139,
          "material": 34,
          "mode": 4
        }
      ]
    },
    {
      "name": "Object_35",
      "primitives": [
        {
          "attributes": {
            "NORMAL": 141,
            "POSITION": 140,
            "TEXCOORD_0": 142
          },
          "indices": 143,
          "material": 35,
          "mode": 4
        }
      ]
    }
  ],
  "nodes": [
    {
      "children": [
        1
      ],
      "matrix": [
        1.0,
        0.0,
        0.0,
        0.0,
        0.0,
        2.220446049250313e-16,
        -1.0,
        0.0,
        0.0,
        1.0,
        2.220446049250313e-16,
        0.0,
        0.0,
        0.0,
        0.0,
        1.0
      ],
      "name": "Sketchfab_model"
    },
    {
      "children": [
        2
      ],
      "name": "root"
    },
    {
      "children": [
        3,
        6
      ],
      "matrix": [
        1.0,
        0.0,
        0.0,
        0.0,
        0.0,
        2.220446049250313e-16,
        1.0,
        0.0,
        0.0,
        -1.0,
        2.220446049250313e-16,
        0.0,
        0.0,
        0.0,
        0.0,
        1.0
      ],
      "name": "GLTF_SceneRootNode"
    },
    {
      "children": [
        4
      ],
      "matrix": [
        1.0,
        0.0,
        0.0,
        0.0,
        0.0,
        1.0,
        0.0,
        0.0,
        0.0,
        0.0,
        1.0,
        0.0,
        0.44543540477752686,
        0.08908708393573761,
        0.8908708095550537,
        1.0
      ],
      "name": "Directional Light_0"
    },
    {
      "children": [
        5
      ],
      "name": "Box_1"
    },
    {
      "mesh": 0,
      "name": "Object_5"
    },
    {
      "children": [
        7
      ],
      "matrix": [
        0.020965300500392914,
        -3.9581973396707326e-05,
        -0.00024655237211845815,
        0.0,
        -4.00660683226306e-05,
        -0.020966708660125732,
        -4.093839379493147e-05,
        0.0,
        -0.0002464741701260209,
        4.140663440921344e-05,
        -0.020965298637747765,
        0.0,
        0.0,
        0.0,
        0.0,
        1.0
      ],
      "name": "de_dust2_-_cs_map.glb_2"
    },
    {
      "children": [
        8,
        10
      ],
      "name": "Sketchfab_model_3"
    },
    {
      "children": [
        9
      ],
      "name": "Box_4"
    },
    {
      "mesh": 1,
      "name": "Object_9"
    },
    {
      "children": [
        11,
        13,
        15,
        17,
        19,
        21,
        23,
        25,
        27,
        29,
        31,
        33,
        35,
        37,
        39,
        41,
        43,
        45,
        47,
        49,
        51,
        53,
        55,
        57,
        59,
        61,
        63,
        65,
        67,
        69,
        71,
        73,
        75,
        77
      ],
      "name": "de_dust2objcleanermaterialmergergles_5"
    },
    {
      "children": [
        12
      ],
      "name": "Object_2_6"
    },
    {
      "mesh": 2,
      "name": "Object_12"
    },
    {
      "children": [
        14
      ],
      "name": "Object_3_7"
    },
    {
      "mesh": 3,
      "name": "Object_14"
    },
    {
      "children": [
        16
      ],
      "name": "Object_4_8"
    },
    {
      "mesh": 4,
      "name": "Object_16"
    },
    {
      "children": [
        18
      ],
      "name": "Object_5_9"
    },
    {
      "mesh": 5,
      "name": "Object_18"
    },
    {
      "children": [
        20
      ],
      "name": "Object_6_10"
    },
    {
      "mesh": 6,
      "name": "Object_20"
    },
    {
      "children": [
        22
      ],
      "name": "Object_7_11"
    },
    {
      "mesh": 7,
      "name": "Object_22"
    },
    {
      "children": [
        24
      ],
      "name": "Object_8_12"
    },
    {
      "mesh": 8,
      "name": "Object_24"
    },
    {
      "children": [
        26
      ],
      "name": "Object_9_13"
    },
    {
      "mesh": 9,
      "name": "Object_26"
    },
    {
      "children": [
        28
      ],
      "name": "Object_10_14"
    },
    {
      "mesh": 10,
      "name": "Object_28"
    },
    {
      "children": [
        30
      ],
      "name": "Object_11_15"
    },
    {
      "mesh": 11,
      "name": "Object_30"
    },
    {
      "children": [
        32
      ],
      "name": "Object_12_16"
    },
    {
      "mesh": 12,
      "name": "Object_32"
    },
    {
      "children": [
        34
      ],
      "name": "Object_13_17"
    },
    {
      "mesh": 13,
      "name": "Object_34"
    },
    {
      "children": [
        36
      ],
      "name": "Object_14_18"
    },
    {
      "mesh": 14,
      "name": "Object_36"
    },
    {
      "children": [
        38
      ],
      "name": "Object_15_19"
    },
    {
      "mesh": 15,
      "name": "Object_38"
    },
    {
      "children": [
        40
      ],
      "name": "Object_16_20"
    },
    {
      "mesh": 16,
      "name": "Object_40"
    },
    {
      "children": [
        42
      ],
      "name": "Object_17_21"
    },
    {
      "mesh": 17,
      "name": "Object_42"
    },
    {
      "children": [
        44
      ],
      "name": "Object_18_22"
    },
    {
      "mesh": 18,
      "name": "Object_44"
    },
    {
      "children": [
        46
      ],
      "name": "Object_19_23"
    },
    {
      "mesh": 19,
      "name": "Object_46"
    },
    {
      "children": [
        48
      ],
      "name": "Object_20_24"
    },
    {
      "mesh": 20,
      "name": "Object_48"
    },
    {
      "children": [
        50
      ],
      "name": "Object_21_25"
    },
    {
      "mesh": 21,
      "name": "Object_50"
    },
    {
      "children": [
        52
      ],
      "name": "Object_22_26"
    },
    {
      "mesh": 22,
      "name": "Object_52"
    },
    {
      "children": [
        54
      ],
      "name": "Object_23_27"
    },
    {
      "mesh": 23,
      "name": "Object_54"
    },
    {
      "children": [
        56
      ],
      "name": "Object_24_28"
    },
    {
      "mesh": 24,
      "name": "Object_56"
    },
    {
      "children": [
        58
      ],
      "name": "Object_25_29"
    },
    {
      "mesh": 25,
      "name": "Object_58"
    },
    {
      "children": [
        60
      ],
      "name": "Object_26_30"
    },
    {
      "mesh": 26,
      "name": "Object_60"
    },
    {
      "children": [
        62
      ],
      "name": "Object_27_31"
    },
    {
      "mesh": 27,
      "name": "Object_62"
    },
    {
      "children": [
        64
      ],
      "name": "Object_28_32"
    },
    {
      "mesh": 28,
      "name": "Object_64"
    },
    {
      "children": [
        66
      ],
      "name": "Object_29_33"
    },
    {
      "mesh": 29,
      "name": "Object_66"
    },
    {
      "children": [
        68
      ],
      "name": "Object_30_34"
    },
    {
      "mesh": 30,
      "name": "Object_68"
    },
    {
      "children": [
        70
      ],
      "name": "Object_31_35"
    },
    {
      "mesh": 31,
      "name": "Object_70"
    },
    {
      "children": [
        72
      ],
      "name": "Object_32_36"
    },
    {
      "mesh": 32,
      "name": "Object_72"
    },
    {
      "children": [
        74
      ],
      "name": "Object_33_37"
    },
    {
      "mesh": 33,
      "name": "Object_74"
    },
    {
      "children": [
        76
      ],
      "name": "Object_34_38"
    },
    {
      "mesh": 34,
      "name": "Object_76"
    },
    {
      "children": [
        78
      ],
      "name": "Object_35_39"
    },
    {
      "mesh": 35,
      "name": "Object_78"
    }
  ],
  "samplers": [
    {
      "magFilter": 9729,
      "minFilter": 9987,
      "wrapS": 10497,
      "wrapT": 10497
    }
  ],
  "scene": 0,
  "scenes": [
    {
      "name": "Sketchfab_Scene",
      "nodes": [
        0
      ]
    }
  ],
  "textures": [
    {
      "sampler": 0,
      "source": 0
    },
    {
      "sampler": 0,
      "source": 1
    },
    {
      "sampler": 0,
      "source": 2
    },
    {
      "sampler": 0,
      "source": 3
    },
    {
      "sampler": 0,
      "source": 4
    },
    {
      "sampler": 0,
      "source": 5
    },
    {
      "sampler": 0,
      "source": 6
    },
    {
      "sampler": 0,
      "source": 7
    },
    {
      "sampler": 0,
      "source": 8
    },
    {
      "sampler": 0,
      "source": 9
    },
    {
      "sampler": 0,
      "source": 10
    },
    {
      "sampler": 0,
      "source": 11
    },
    {
      "sampler": 0,
      "source": 12
    },
    {
      "sampler": 0,
      "source": 13
    },
    {
      "sampler": 0,
      "source": 14
    },
    {
      "sampler": 0,
      "source": 15
    },
    {
      "sampler": 0,
      "source": 16
    },
    {
      "sampler": 0,
      "source": 17
    },
    {
      "sampler": 0,
      "source": 18
    },
    {
      "sampler": 0,
      "source": 19
    },
    {
      "sampler": 0,
      "source": 20
    },
    {
      "sampler": 0,
      "source": 21
    },
    {
      "sampler": 0,
      "source": 22
    },
    {
      "sampler": 0,
      "source": 23
    },
    {
      "sampler": 0,
      "source": 24
    },
    {
      "sampler": 0,
      "source": 25
    },
    {
      "sampler": 0,
      "source": 26
    },
    {
      "sampler": 0,
      "source": 27
    },
    {
      "sampler": 0,
      "source": 28
    },
    {
      "sampler": 0,
      "source": 29
    },
    {
      "sampler": 0,
      "source": 30
    },
    {
      "sampler": 0,
      "source": 31
    },
    {
      "sampler": 0,
      "source": 32
    },
    {
      "sampler": 0,
      "source": 33
    }
  ]
}
