{
	"asset":{
		"generator":"Khronos glTF Blender I/O v4.0.44",
		"version":"2.0"
	},
	"scene":0,
	"scenes":[
		{
			"name":"Scene",
			"nodes":[
				65,
				69
			]
		}
	],
	"nodes":[
		{
			"name":"Object_6",
			"rotation":[
				-0.70710688829422,
				0,
				0,
				0.7071066498756409
			],
			"scale":[
				100,
				100.00001525878906,
				100.00001525878906
			]
		},
		{
			"name":"v_weapon.Left_Thumb03_011",
			"rotation":[
				-0.06157277151942253,
				0.11466922610998154,
				-0.07753925025463104,
				0.9884570837020874
			],
			"scale":[
				1,
				0.9999998807907104,
				1
			],
			"translation":[
				0.7584018707275391,
				-0.000152587890625,
				-0.6543960571289062
			]
		},
		{
			"children":[
				1
			],
			"name":"v_weapon.Left_Thumb_02_010",
			"rotation":[
				-0.14433200657367706,
				0.22344505786895752,
				-0.10518763214349747,
				0.9582151174545288
			],
			"scale":[
				1,
				1,
				1.0000001192092896
			],
			"translation":[
				0.7361412048339844,
				-0.000240325927734375,
				-1.7375831604003906
			]
		},
		{
			"children":[
				2
			],
			"name":"v_weapon.Left_Thumb01_09",
			"rotation":[
				0.013717192225158215,
				-0.934731125831604,
				0.3545762002468109,
				0.01911218836903572
			],
			"scale":[
				1,
				0.9999998211860657,
				0.9999998807907104
			],
			"translation":[
				398.89471435546875,
				-49.3357048034668,
				1256.543701171875
			]
		},
		{
			"children":[
				3
			],
			"name":"v_weapon.Root17_08",
			"rotation":[
				-1.8626877817951026e-09,
				-2.980268121177687e-08,
				3.7252678719568166e-09,
				1
			],
			"translation":[
				-3.087122968281619e-05,
				3.877561539411545e-06,
				-6.079277954995632e-05
			]
		},
		{
			"name":"v_weapon.Left_Pinky03_015",
			"rotation":[
				0.11119894683361053,
				-0.17553530633449554,
				0.0785176008939743,
				0.9750164747238159
			],
			"scale":[
				0.9999998211860657,
				1.0000001192092896,
				1.0000001192092896
			],
			"translation":[
				0.4511871337890625,
				7.62939453125e-06,
				-0.442901611328125
			]
		},
		{
			"children":[
				5
			],
			"name":"v_weapon.Left_Pinky02_014",
			"rotation":[
				-0.004791799932718277,
				0.0045834193006157875,
				-0.0031090201810002327,
				0.9999731779098511
			],
			"scale":[
				1.0000001192092896,
				1.0000001192092896,
				1
			],
			"translation":[
				0.6754302978515625,
				-0.000118255615234375,
				-0.687591552734375
			]
		},
		{
			"children":[
				6
			],
			"name":"v_weapon.Left_Pinky01_013",
			"rotation":[
				0.6559424996376038,
				-0.659153938293457,
				0.364777147769928,
				0.04683150351047516
			],
			"scale":[
				1.0000001192092896,
				1.0000001192092896,
				1
			],
			"translation":[
				459.27886962890625,
				-217.66307067871094,
				1462.281005859375
			]
		},
		{
			"children":[
				7
			],
			"name":"v_weapon.Root18_012",
			"rotation":[
				-1.8626877817951026e-09,
				-2.980268121177687e-08,
				3.7252676499122117e-09,
				1
			],
			"translation":[
				-3.087122968281619e-05,
				3.877561539411545e-06,
				-6.079277954995632e-05
			]
		},
		{
			"name":"v_weapon.Left_Ring03_019",
			"rotation":[
				0.024046536535024643,
				-0.038101326674222946,
				0.016563655808568,
				0.9988471865653992
			],
			"scale":[
				0.9999999403953552,
				1,
				1
			],
			"translation":[
				0.458831787109375,
				0.00030517578125,
				-0.6102294921875
			]
		},
		{
			"children":[
				9
			],
			"name":"v_weapon.Left_Ring02_018",
			"rotation":[
				0.08164424449205399,
				-0.19153888523578644,
				0.0908302292227745,
				0.9738567471504211
			],
			"scale":[
				1,
				1,
				0.9999998807907104
			],
			"translation":[
				1.0380401611328125,
				-0.0001049041748046875,
				-0.617950439453125
			]
		},
		{
			"children":[
				10
			],
			"name":"v_weapon.Left_Ring01_017",
			"rotation":[
				0.5588859915733337,
				-0.6838838458061218,
				0.4005238711833954,
				0.24398793280124664
			],
			"scale":[
				0.9999999403953552,
				0.9999998211860657,
				0.9999999403953552
			],
			"translation":[
				462.219482421875,
				-160.17984008789062,
				1497.953857421875
			]
		},
		{
			"children":[
				11
			],
			"name":"v_weapon.Root19_016",
			"rotation":[
				-1.8626877817951026e-09,
				-2.980268121177687e-08,
				3.7252680940014216e-09,
				1
			],
			"scale":[
				1,
				0.9999998807907104,
				1
			],
			"translation":[
				-3.087122968281619e-05,
				3.877561539411545e-06,
				-6.079277954995632e-05
			]
		},
		{
			"name":"v_weapon.Left_Middle03_023",
			"rotation":[
				-0.06727007031440735,
				0.1259656399488449,
				-0.05590766295790672,
				0.9881709218025208
			],
			"scale":[
				1,
				1,
				1.0000001192092896
			],
			"translation":[
				0.5003814697265625,
				2.09808349609375e-05,
				-0.787078857421875
			]
		},
		{
			"children":[
				13
			],
			"name":"v_weapon.Left_Middle02_022",
			"rotation":[
				0.13490240275859833,
				-0.3758813738822937,
				0.19409169256687164,
				0.8960150480270386
			],
			"scale":[
				0.9999999403953552,
				1,
				1
			],
			"translation":[
				1.2223281860351562,
				-0.0001621246337890625,
				-0.25942230224609375
			]
		},
		{
			"children":[
				14
			],
			"name":"v_weapon.Left_Middle01_021",
			"rotation":[
				0.519976019859314,
				-0.600902795791626,
				0.4448084831237793,
				0.41314196586608887
			],
			"scale":[
				0.9999999403953552,
				0.9999999403953552,
				1
			],
			"translation":[
				464.69903564453125,
				-98.84217071533203,
				1513.8829345703125
			]
		},
		{
			"children":[
				15
			],
			"name":"v_weapon.Root20_020",
			"rotation":[
				-1.8626877817951026e-09,
				-2.980268121177687e-08,
				3.7252676499122117e-09,
				1
			],
			"translation":[
				-3.087122968281619e-05,
				3.877561539411545e-06,
				-6.079277954995632e-05
			]
		},
		{
			"name":"v_weapon.Left_Index03_027",
			"rotation":[
				-0.03782716393470764,
				0.09690263867378235,
				-0.045597728341817856,
				0.9935290217399597
			],
			"scale":[
				0.9999998807907104,
				0.9999999403953552,
				0.9999998807907104
			],
			"translation":[
				0.5276031494140625,
				0.00012493133544921875,
				-0.532379150390625
			]
		},
		{
			"children":[
				17
			],
			"name":"v_weapon.Left_Index02_026",
			"rotation":[
				0.07393478602170944,
				-0.2547445297241211,
				0.1263895332813263,
				0.955858051776886
			],
			"scale":[
				1,
				0.9999999403953552,
				1
			],
			"translation":[
				1.2345046997070312,
				-1.1444091796875e-05,
				-0.3408393859863281
			]
		},
		{
			"children":[
				18
			],
			"name":"v_weapon.Left_Index01_025",
			"rotation":[
				0.5113430023193359,
				-0.6101726293563843,
				0.45006251335144043,
				0.40455102920532227
			],
			"scale":[
				0.9999999403953552,
				0.9999999403953552,
				0.9999999403953552
			],
			"translation":[
				466.69378662109375,
				-32.40431213378906,
				1507.922607421875
			]
		},
		{
			"children":[
				19
			],
			"name":"v_weapon.Root21_024",
			"rotation":[
				-1.8626877817951026e-09,
				-2.980268121177687e-08,
				3.7252678719568166e-09,
				1
			],
			"translation":[
				-3.087122968281619e-05,
				3.877561539411545e-06,
				-6.079277954995632e-05
			]
		},
		{
			"children":[
				4,
				8,
				12,
				16,
				20
			],
			"name":"v_weapon.eff2_07",
			"rotation":[
				0.7868133783340454,
				-0.0004298013518564403,
				0.6159577965736389,
				0.038994207978248596
			],
			"scale":[
				1.000003457069397,
				0.9999998211860657,
				1.0000054836273193
			],
			"translation":[
				-12.838683128356934,
				-0.2686882019042969,
				-1.2117605209350586
			]
		},
		{
			"children":[
				21
			],
			"name":"v_weapon.Left_Hand_06",
			"rotation":[
				-0.7868161201477051,
				0.00042987088090740144,
				-0.6159542202949524,
				0.038994573056697845
			],
			"scale":[
				1.0000033378601074,
				0.9999999403953552,
				1.0000056028366089
			],
			"translation":[
				428.40643310546875,
				-81.9552001953125,
				1213.8914794921875
			]
		},
		{
			"children":[
				22
			],
			"name":"v_weapon.Root16_05",
			"rotation":[
				5.122274160385132e-09,
				-1.210719347000122e-08,
				6.201826347285728e-17,
				1
			],
			"translation":[
				-3.9244670915650204e-05,
				5.796613550046459e-06,
				1.579767922521569e-05
			]
		},
		{
			"children":[
				23
			],
			"name":"v_weapon.eff16_04",
			"rotation":[
				0.16322939097881317,
				0.696473240852356,
				0.15618617832660675,
				0.6810925602912903
			],
			"scale":[
				1.000000238418579,
				1.000000238418579,
				1
			],
			"translation":[
				-3.4794955253601074,
				-1.091492772102356,
				4.409162521362305
			]
		},
		{
			"name":"v_weapon.L_wrist_helper_029",
			"rotation":[
				0.5219774842262268,
				0.5135923624038696,
				0.4941209554672241,
				0.46862220764160156
			],
			"scale":[
				1,
				1.0000001192092896,
				1
			],
			"translation":[
				428.4065246582031,
				-81.95545959472656,
				1213.8919677734375
			]
		},
		{
			"children":[
				25
			],
			"name":"v_weapon.Root99_028",
			"rotation":[
				0.16322940587997437,
				0.696473240852356,
				0.15618623793125153,
				0.6810925602912903
			],
			"scale":[
				1,
				0.9999998807907104,
				0.9999999403953552
			],
			"translation":[
				-3.4794955253601074,
				-1.091492772102356,
				4.409162521362305
			]
		},
		{
			"children":[
				24,
				26
			],
			"name":"v_weapon.Left_Arm_03",
			"rotation":[
				-0.1632293313741684,
				-0.696473240852356,
				-0.15618620812892914,
				0.6810925602912903
			],
			"scale":[
				1.0000001192092896,
				1.0000001192092896,
				1
			],
			"translation":[
				437.27276611328125,
				-90.86402893066406,
				357.6559143066406
			]
		},
		{
			"children":[
				27
			],
			"name":"v_weapon.Root34_02",
			"rotation":[
				-7.1054265105680546e-15,
				1.7763570511584873e-15,
				-2.0824037156017078e-22,
				1
			],
			"scale":[
				1,
				1.0000001192092896,
				1.0000001192092896
			],
			"translation":[
				-9.999129074646923e-15,
				9.433113064005738e-07,
				3.3733408599800896e-07
			]
		},
		{
			"name":"v_weapon.Right_Thumb03_039",
			"rotation":[
				1.577696593813016e-06,
				-3.342680201967596e-06,
				0.07707284390926361,
				0.9970254898071289
			],
			"scale":[
				1,
				0.9999998807907104,
				1.0000001192092896
			],
			"translation":[
				0.9825363159179688,
				9.72747802734375e-05,
				-0.000194549560546875
			]
		},
		{
			"children":[
				29
			],
			"name":"v_weapon.Right_Thumb02_038",
			"rotation":[
				-4.807582081411965e-05,
				1.3578727475760388e-06,
				0.24382950365543365,
				0.969818115234375
			],
			"scale":[
				1,
				1,
				0.9999999403953552
			],
			"translation":[
				1.978363037109375,
				-4.57763671875e-05,
				-6.866455078125e-05
			]
		},
		{
			"children":[
				30
			],
			"name":"v_weapon.Right_Thumb01_037",
			"rotation":[
				0.7663097977638245,
				0.27567142248153687,
				0.5141744613647461,
				0.2690708339214325
			],
			"scale":[
				1.000000238418579,
				1.0000001192092896,
				1.0000003576278687
			],
			"translation":[
				-445.53240966796875,
				-117.8101577758789,
				1273.234130859375
			]
		},
		{
			"children":[
				31
			],
			"name":"v_weapon.Root24_036",
			"rotation":[
				8.847578669701761e-09,
				1.1253455273489612e-15,
				5.587933227246822e-09,
				1
			],
			"scale":[
				1,
				1,
				1.0000001192092896
			],
			"translation":[
				-5.789769420516677e-05,
				1.6373436665162444e-05,
				0.00020671653328463435
			]
		},
		{
			"name":"v_weapon.Right_Index03_043",
			"rotation":[
				-9.195729035127442e-06,
				-6.7871660576201975e-06,
				0.12683053314685822,
				0.9919244050979614
			],
			"scale":[
				1.0000001192092896,
				1,
				1.0000001192092896
			],
			"translation":[
				0.7524394989013672,
				-0.00034332275390625,
				-3.075599670410156e-05
			]
		},
		{
			"children":[
				33
			],
			"name":"v_weapon.Right_Index02_042",
			"rotation":[
				-1.1908272426808253e-05,
				5.6753901844786014e-06,
				-0.176984503865242,
				0.984213650226593
			],
			"scale":[
				1,
				0.9999998211860657,
				1
			],
			"translation":[
				1.2929458618164062,
				0.000152587890625,
				-6.0558319091796875e-05
			]
		},
		{
			"children":[
				34
			],
			"name":"v_weapon.Right_Index01_041",
			"rotation":[
				0.5650362372398376,
				-0.4255567789077759,
				0.48532581329345703,
				0.5139012932777405
			],
			"scale":[
				1,
				1.0000001192092896,
				0.9999999403953552
			],
			"translation":[
				-521.5000610351562,
				-73.77561950683594,
				1520.1435546875
			]
		},
		{
			"children":[
				35
			],
			"name":"v_weapon.Root25_040",
			"rotation":[
				8.847578669701761e-09,
				1.1253455273489612e-15,
				5.587933227246822e-09,
				1
			],
			"scale":[
				1,
				1,
				1.0000001192092896
			],
			"translation":[
				-5.789769420516677e-05,
				1.6373436665162444e-05,
				0.00020671653328463435
			]
		},
		{
			"name":"v_weapon.Right_Middle03_047",
			"rotation":[
				9.475516890233848e-06,
				-6.653448849647248e-07,
				-0.02108193188905716,
				0.9997777938842773
			],
			"scale":[
				1,
				1.000000238418579,
				1.0000001192092896
			],
			"translation":[
				0.9431166648864746,
				0.000385284423828125,
				3.814697265625e-05
			]
		},
		{
			"children":[
				37
			],
			"name":"v_weapon.Right_Middle02_046",
			"rotation":[
				4.306253686081618e-06,
				-1.832378757171682e-06,
				-0.11477188020944595,
				0.9933918714523315
			],
			"scale":[
				1,
				1,
				0.9999999403953552
			],
			"translation":[
				1.2613344192504883,
				0.0001373291015625,
				7.62939453125e-05
			]
		},
		{
			"children":[
				38
			],
			"name":"v_weapon.Right_Middle01_045",
			"rotation":[
				0.5862921476364136,
				-0.41679608821868896,
				0.45040249824523926,
				0.5288479328155518
			],
			"scale":[
				1,
				1,
				1.0000001192092896
			],
			"translation":[
				-514.9469604492188,
				-139.15208435058594,
				1532.8818359375
			]
		},
		{
			"children":[
				39
			],
			"name":"v_weapon.Root26_044",
			"rotation":[
				8.847578669701761e-09,
				1.1253455273489612e-15,
				5.587933671336032e-09,
				1
			],
			"scale":[
				1,
				1,
				1.0000001192092896
			],
			"translation":[
				-5.789769420516677e-05,
				1.6373436665162444e-05,
				0.00020671653328463435
			]
		},
		{
			"name":"v_weapon.Right_Ring03_051",
			"rotation":[
				3.5953787573816953e-06,
				-1.7879018514577183e-06,
				-0.042626094073057175,
				0.9990910887718201
			],
			"scale":[
				0.9999999403953552,
				1.0000001192092896,
				0.9999999403953552
			],
			"translation":[
				0.7422003746032715,
				0.0002288818359375,
				-7.62939453125e-06
			]
		},
		{
			"children":[
				41
			],
			"name":"v_weapon.Right_Ring02_050",
			"rotation":[
				-2.5183800971717574e-05,
				-4.733726655103965e-06,
				-0.07753400504589081,
				0.9969897270202637
			],
			"scale":[
				1,
				0.9999999403953552,
				1.0000001192092896
			],
			"translation":[
				1.2081241607666016,
				0.000125885009765625,
				0.00017547607421875
			]
		},
		{
			"children":[
				42
			],
			"name":"v_weapon.Right_Ring01_049",
			"rotation":[
				0.6244584321975708,
				-0.3831597566604614,
				0.40788474678993225,
				0.5448580384254456
			],
			"scale":[
				1.0000001192092896,
				1.0000001192092896,
				1
			],
			"translation":[
				-507.87188720703125,
				-200.21775817871094,
				1525.506103515625
			]
		},
		{
			"children":[
				43
			],
			"name":"v_weapon.Root27_048",
			"rotation":[
				8.847578669701761e-09,
				1.1253455273489612e-15,
				5.587933671336032e-09,
				1
			],
			"scale":[
				1,
				1,
				1.0000001192092896
			],
			"translation":[
				-5.789769420516677e-05,
				1.6373436665162444e-05,
				0.00020671653328463435
			]
		},
		{
			"name":"v_weapon.Right_Pinky03_055",
			"rotation":[
				-3.164146619383246e-05,
				-1.5416004828239238e-07,
				-0.01842661015689373,
				0.9998302459716797
			],
			"scale":[
				1,
				0.9999998807907104,
				1
			],
			"translation":[
				0.6146507263183594,
				2.288818359375e-05,
				-4.1961669921875e-05
			]
		},
		{
			"children":[
				45
			],
			"name":"v_weapon.Right_Pinky02_054",
			"rotation":[
				2.9854509193683043e-05,
				-5.922549917158904e-07,
				-0.09168975055217743,
				0.9957876205444336
			],
			"scale":[
				1,
				0.9999999403953552,
				0.9999999403953552
			],
			"translation":[
				0.9959144592285156,
				-4.1961669921875e-05,
				-4.9591064453125e-05
			]
		},
		{
			"children":[
				46
			],
			"name":"v_weapon.Right_Pinky01_053",
			"rotation":[
				0.6310142278671265,
				-0.4144411087036133,
				0.3783063590526581,
				0.5356715321540833
			],
			"scale":[
				1.0000001192092896,
				1.000000238418579,
				1
			],
			"translation":[
				-499.62603759765625,
				-260.01702880859375,
				1491.666748046875
			]
		},
		{
			"children":[
				47
			],
			"name":"v_weapon.Root28_052",
			"rotation":[
				8.847578669701761e-09,
				1.1253455273489612e-15,
				5.587933671336032e-09,
				1
			],
			"scale":[
				1,
				1,
				1.0000001192092896
			],
			"translation":[
				-5.789769420516677e-05,
				1.6373436665162444e-05,
				0.00020671653328463435
			]
		},
		{
			"children":[
				32,
				36,
				40,
				44,
				48
			],
			"name":"v_weapon.eff9_035",
			"rotation":[
				0.007606293074786663,
				0.7567258477210999,
				-0.02287307381629944,
				0.6532878279685974
			],
			"scale":[
				1,
				1.0000001192092896,
				1.0000001192092896
			],
			"translation":[
				-12.832947731018066,
				1.9782600402832031,
				-2.8990654945373535
			]
		},
		{
			"children":[
				49
			],
			"name":"v_weapon.Right_Hand_034",
			"rotation":[
				-0.007606301456689835,
				-0.7567258477210999,
				0.022873079404234886,
				0.6532878279685974
			],
			"scale":[
				0.9999999403953552,
				1,
				1
			],
			"translation":[
				-470.8644714355469,
				-151.62510681152344,
				1235.032470703125
			]
		},
		{
			"children":[
				50
			],
			"name":"v_weapon.Root23_033",
			"rotation":[
				-4.19093071357679e-09,
				5.005858838558197e-08,
				5.960464477539063e-08,
				1
			],
			"scale":[
				0.9999999403953552,
				0.9999999403953552,
				0.9999999403953552
			],
			"translation":[
				8.445959247183055e-05,
				4.70769009552896e-07,
				-2.1321180611266755e-05
			]
		},
		{
			"children":[
				51
			],
			"name":"v_weapon.eff18_032",
			"rotation":[
				-0.37554726004600525,
				0.6034882664680481,
				-0.3683314621448517,
				0.599247932434082
			],
			"scale":[
				1,
				1.000000238418579,
				1
			],
			"translation":[
				-3.822535753250122,
				-3.604006052017212,
				-3.3302998542785645
			]
		},
		{
			"name":"v_weapon.R_wrist_helper_057",
			"rotation":[
				-0.040124207735061646,
				0.7239736318588257,
				0.6880044341087341,
				0.030035659670829773
			],
			"scale":[
				0.9999999403953552,
				0.9999999403953552,
				1.0000001192092896
			],
			"translation":[
				-470.8643798828125,
				-151.62501525878906,
				1235.032958984375
			]
		},
		{
			"children":[
				53
			],
			"name":"v_weapon.Root98_056",
			"rotation":[
				-0.37554728984832764,
				0.6034882664680481,
				-0.3683314621448517,
				0.5992480516433716
			],
			"scale":[
				0.9999999403953552,
				1,
				0.9999999403953552
			],
			"translation":[
				-3.822535753250122,
				-3.604006052017212,
				-3.3302998542785645
			]
		},
		{
			"children":[
				52,
				54
			],
			"name":"v_weapon.Right_Arm_031",
			"rotation":[
				0.3755472004413605,
				-0.6034883260726929,
				0.3683314621448517,
				0.5992478728294373
			],
			"scale":[
				1.000000238418579,
				1.0000001192092896,
				1
			],
			"translation":[
				-471.0888977050781,
				-141.52772521972656,
				380.7292175292969
			]
		},
		{
			"children":[
				55
			],
			"name":"v_weapon.Root36_030",
			"rotation":[
				-7.1054265105680546e-15,
				1.7763570511584873e-15,
				-2.0852229151503504e-22,
				1
			],
			"scale":[
				1,
				1.0000001192092896,
				1.0000001192092896
			],
			"translation":[
				-9.999129074646923e-15,
				9.433113064005738e-07,
				3.3733408599800896e-07
			]
		},
		{
			"children":[
				28,
				56
			],
			"name":"v_weapon.Hands_parent_00",
			"rotation":[
				-1.3234888223126632e-23,
				-8.881782079418884e-16,
				-2.117582368135751e-22,
				1
			],
			"scale":[
				1,
				1.0000001192092896,
				1.0000001192092896
			],
			"translation":[
				-9.999129074646923e-15,
				9.433113064005738e-07,
				3.3733408599800896e-07
			]
		},
		{
			"children":[
				57
			],
			"name":"v_weapon_01",
			"rotation":[
				-1.3234888223126632e-23,
				-8.881782079418884e-16,
				-2.117582368135751e-22,
				1
			],
			"scale":[
				1,
				1.0000001192092896,
				1.0000001192092896
			],
			"translation":[
				-9.999129074646923e-15,
				9.433113064005738e-07,
				3.3733408599800896e-07
			]
		},
		{
			"children":[
				58
			],
			"name":"_rootJoint",
			"rotation":[
				-8.557136332854043e-09,
				1.7114270889351246e-08,
				-2.928986992046167e-16,
				1
			],
			"scale":[
				1,
				1.0000001192092896,
				1.0000001192092896
			],
			"translation":[
				0,
				9.433113064005738e-07,
				1.2650616554310545e-08
			]
		},
		{
			"mesh":0,
			"name":"Object_7",
			"skin":0
		},
		{
			"children":[
				0,
				60,
				59
			],
			"name":"Object_4"
		},
		{
			"children":[
				61
			],
			"name":"hands_reference_skeleton",
			"rotation":[
				-0.70710688829422,
				0,
				0,
				0.7071066498756409
			],
			"scale":[
				100.00000762939453,
				100,
				100
			],
			"translation":[
				0,
				6.103514169808477e-05,
				-6.103516352595761e-05
			]
		},
		{
			"children":[
				62
			],
			"name":"RootNode",
			"translation":[
				0,
				6.103514169808477e-05,
				-6.103516352595761e-05
			]
		},
		{
			"children":[
				63
			],
			"name":"arms.fbx",
			"rotation":[
				0.70710688829422,
				0,
				0,
				0.7071066498756409
			],
			"scale":[
				0.009999999776482582,
				0.010000001639127731,
				0.010000001639127731
			],
			"translation":[
				0,
				9.48575210571289,
				6.33020544052124
			]
		},
		{
			"children":[
				64
			],
			"name":"Sketchfab_model",
			"rotation":[
				-0.70710688829422,
				0,
				0,
				0.7071066498756409
			],
			"scale":[
				0.09914851188659668,
				0.09914852678775787,
				0.09914852678775787
			]
		},
		{
			"mesh":1,
			"name":"GeometryNode_3"
		},
		{
			"children":[
				66
			],
			"name":"Group_2"
		},
		{
			"children":[
				67
			],
			"name":"6a10d889cb904581930183caa658324c.obj.cleaner.materialmerger.gle"
		},
		{
			"children":[
				68
			],
			"name":"Sketchfab_model.001",
			"rotation":[
				-0.7091558575630188,
				0.5880435109138489,
				-0.3866715431213379,
				0.04228323698043823
			],
			"scale":[
				0.09952981770038605,
				0.09952981770038605,
				0.09952981770038605
			],
			"translation":[
				-0.726615309715271,
				0.6094556450843811,
				0.24856024980545044
			]
		}
	],
	"materials":[
		{
			"doubleSided":true,
			"name":"Material.001",
			"pbrMetallicRoughness":{
				"baseColorTexture":{
					"index":0
				},
				"metallicFactor":0,
				"roughnessFactor":0.8211145401000977
			}
		},
		{
			"doubleSided":true,
			"name":"Texture_0",
			"normalTexture":{
				"index":1
			},
			"pbrMetallicRoughness":{
				"baseColorTexture":{
					"index":2
				},
				"metallicFactor":0.5550057888031006
			}
		}
	],
	"meshes":[
		{
			"name":"hands_reference_Material.001_0",
			"primitives":[
				{
					"attributes":{
						"POSITION":0,
						"NORMAL":1,
						"TEXCOORD_0":2,
						"JOINTS_0":3,
						"WEIGHTS_0":4
					},
					"indices":5,
					"material":0
				}
			]
		},
		{
			"name":"GeometryNode_3",
			"primitives":[
				{
					"attributes":{
						"POSITION":7,
						"NORMAL":8,
						"TEXCOORD_0":9
					},
					"indices":10,
					"material":1
				}
			]
		}
	],
	"textures":[
		{
			"sampler":0,
			"source":0
		},
		{
			"sampler":0,
			"source":1
		},
		{
			"sampler":0,
			"source":2
		}
	],
	"images":[
		{
			"mimeType":"image/jpeg",
			"name":"Material.001_baseColor",
			"uri":"Material_001_baseColor.jpg"
		},
		{
			"mimeType":"image/png",
			"name":"skeleton_normal",
			"uri":"skeleton_normal.png"
		},
		{
			"mimeType":"image/png",
			"name":"skeleton",
			"uri":"skeleton.png"
		}
	],
	"skins":[
		{
			"inverseBindMatrices":6,
			"joints":[
				59,
				58,
				57,
				28,
				27,
				24,
				23,
				22,
				21,
				4,
				3,
				2,
				1,
				8,
				7,
				6,
				5,
				12,
				11,
				10,
				9,
				16,
				15,
				14,
				13,
				20,
				19,
				18,
				17,
				26,
				25,
				56,
				55,
				52,
				51,
				50,
				49,
				32,
				31,
				30,
				29,
				36,
				35,
				34,
				33,
				40,
				39,
				38,
				37,
				44,
				43,
				42,
				41,
				48,
				47,
				46,
				45,
				54,
				53
			],
			"name":"Object_4"
		}
	],
	"accessors":[
		{
			"bufferView":0,
			"componentType":5126,
			"count":1306,
			"max":[
				131.2813262939453,
				311.4872131347656,
				53.671051025390625
			],
			"min":[
				-144.191162109375,
				36.05899429321289,
				7.913243770599365
			],
			"type":"VEC3"
		},
		{
			"bufferView":1,
			"componentType":5126,
			"count":1306,
			"type":"VEC3"
		},
		{
			"bufferView":2,
			"componentType":5126,
			"count":1306,
			"type":"VEC2"
		},
		{
			"bufferView":3,
			"componentType":5121,
			"count":1306,
			"type":"VEC4"
		},
		{
			"bufferView":4,
			"componentType":5126,
			"count":1306,
			"type":"VEC4"
		},
		{
			"bufferView":5,
			"componentType":5123,
			"count":5334,
			"type":"SCALAR"
		},
		{
			"bufferView":6,
			"componentType":5126,
			"count":59,
			"type":"MAT4"
		},
		{
			"bufferView":7,
			"componentType":5126,
			"count":3542,
			"max":[
				0.18402114510536194,
				3.7841241359710693,
				1.342140555381775
			],
			"min":[
				-0.1700820028781891,
				-8.953490257263184,
				-1.0122699737548828
			],
			"type":"VEC3"
		},
		{
			"bufferView":8,
			"componentType":5126,
			"count":3542,
			"type":"VEC3"
		},
		{
			"bufferView":9,
			"componentType":5126,
			"count":3542,
			"type":"VEC2"
		},
		{
			"bufferView":10,
			"componentType":5123,
			"count":13098,
			"type":"SCALAR"
		}
	],
	"bufferViews":[
		{
			"buffer":0,
			"byteLength":15672,
			"byteOffset":0,
			"target":34962
		},
		{
			"buffer":0,
			"byteLength":15672,
			"byteOffset":15672,
			"target":34962
		},
		{
			"buffer":0,
			"byteLength":10448,
			"byteOffset":31344,
			"target":34962
		},
		{
			"buffer":0,
			"byteLength":5224,
			"byteOffset":41792,
			"target":34962
		},
		{
			"buffer":0,
			"byteLength":20896,
			"byteOffset":47016,
			"target":34962
		},
		{
			"buffer":0,
			"byteLength":10668,
			"byteOffset":67912,
			"target":34963
		},
		{
			"buffer":0,
			"byteLength":3776,
			"byteOffset":78580
		},
		{
			"buffer":0,
			"byteLength":42504,
			"byteOffset":82356,
			"target":34962
		},
		{
			"buffer":0,
			"byteLength":42504,
			"byteOffset":124860,
			"target":34962
		},
		{
			"buffer":0,
			"byteLength":28336,
			"byteOffset":167364,
			"target":34962
		},
		{
			"buffer":0,
			"byteLength":26196,
			"byteOffset":195700,
			"target":34963
		}
	],
	"samplers":[
		{
			"magFilter":9729,
			"minFilter":9987
		}
	],
	"buffers":[
		{
			"byteLength":221896,
			"uri":"skeleton_knife_printstream.bin"
		}
	]
}
