{
  "asset": {
    "generator": "OpenSceneGraph 3.5.6",
    "version": "2.0"
  },
  "accessors": [
    {
      "type": "VEC3",
      "componentType": 5126,
      "count": 3539,
      "max": [
        0.18402114510536194,
        3.7841241359710693,
        1.342140555381775
      ],
      "min": [
        -0.1700820028781891,
        -8.953490257263184,
        -1.0122699737548828
      ],
      "bufferView": 0,
      "byteOffset": 0
    },
    {
      "type": "VEC3",
      "componentType": 5126,
      "count": 3539,
      "bufferView": 0,
      "byteOffset": 12
    },
    {
      "type": "VEC4",
      "componentType": 5126,
      "count": 3539,
      "bufferView": 0,
      "byteOffset": 24
    },
    {
      "type": "VEC2",
      "componentType": 5126,
      "count": 3539,
      "bufferView": 0,
      "byteOffset": 40
    },
    {
      "type": "SCALAR",
      "componentType": 5123,
      "count": 13098,
      "bufferView": 1,
      "byteOffset": 0
    }
  ],
  "bufferViews": [
    {
      "buffer": 0,
      "byteOffset": 0,
      "byteLength": 169872,
      "byteStride": 48,
      "target": 34962
    },
    {
      "buffer": 0,
      "byteOffset": 169872,
      "byteLength": 26196,
      "target": 34963
    }
  ],
  "samplers": [
    {
      "magFilter": 9729,
      "minFilter": 9987,
      "wrapS": 10497,
      "wrapT": 10497
    }
  ],
  "textures": [
    {
      "source": 0,
      "sampler": 0
    },
    {
      "source": 1,
      "sampler": 0
    }
  ],
  "images": [
    {
      "name": "skeleton.png",
      "mimeType": "image/png",
      "uri": "images/skeleton.png"
    },
    {
      "name": "skeleton_normal.png",
      "mimeType": "image/png",
      "uri": "images/skeleton_normal.png"
    }
  ],
  "buffers": [
    {
      "uri": "Skeleton_Knife_Printstream.bin",
      "byteLength": 196068
    }
  ],
  "materials": [
    {
      "name": "Texture_0",
      "doubleSided": true,
      "pbrMetallicRoughness": {
        "metallicFactor": 0.555005806565371,
        "baseColorTexture": {
          "index": 0
        }
      },
      "normalTexture": {
        "index": 1
      },
      "extensions": {
        "KHR_materials_anisotropy": {
          "anisotropyStrength": 0.5700934579439252,
          "anisotropyRotation": 0.2961602008411295
        }
      }
    }
  ],
  "meshes": [
    {
      "name": "GeometryNode_3",
      "primitives": [
        {
          "attributes": {
            "POSITION": 0,
            "NORMAL": 1,
            "TANGENT": 2,
            "TEXCOORD_0": 3
          },
          "mode": 4,
          "material": 0,
          "indices": 4
        }
      ]
    }
  ],
  "nodes": [
    {
      "name": "6a10d889cb904581930183caa658324c.obj.cleaner.materialmerger.gles",
      "children": [
        1
      ]
    },
    {
      "name": "Group_2",
      "children": [
        2
      ]
    },
    {
      "name": "GeometryNode_3",
      "mesh": 0
    },
    {
      "name": "Sketchfab_model",
      "translation": [
        4.256574630737305,
        0.8439059853553772,
        -7.593472480773926
      ],
      "rotation": [
        -0.5576077929931513,
        -0.26188697796189014,
        -0.3348640619070353,
        0.7129900542178487
      ],
      "children": [
        0
      ]
    }
  ],
  "scenes": [
    {
      "name": "Scene",
      "nodes": [
        3
      ]
    }
  ],
  "extensionsUsed": [
    "KHR_materials_anisotropy"
  ]
}